<mxfile host="app.diagrams.net" agent="Mozilla/5.0 (Windows NT 10.0; Win64; x64) AppleWebKit/537.36 (KHTML, like Gecko) Chrome/131.0.0.0 Safari/537.36" version="24.8.6">
  <diagram name="Page-1" id="Ssu0Y0EFzGmmgKaoJ4Rl">
    <mxGraphModel dx="1434" dy="744" grid="1" gridSize="10" guides="1" tooltips="1" connect="1" arrows="1" fold="1" page="1" pageScale="1" pageWidth="827" pageHeight="1169" math="0" shadow="0">
      <root>
        <mxCell id="0" />
        <mxCell id="1" parent="0" />
        <mxCell id="3olijA8-65Erff1TvcpX-17" value="" style="edgeStyle=orthogonalEdgeStyle;rounded=0;orthogonalLoop=1;jettySize=auto;html=1;shape=arrow;" edge="1" parent="1" source="3olijA8-65Erff1TvcpX-7" target="3olijA8-65Erff1TvcpX-8">
          <mxGeometry relative="1" as="geometry" />
        </mxCell>
        <mxCell id="3olijA8-65Erff1TvcpX-19" value="" style="edgeStyle=orthogonalEdgeStyle;rounded=0;orthogonalLoop=1;jettySize=auto;html=1;shape=arrow;fontStyle=1;fontSize=14;" edge="1" parent="1" source="3olijA8-65Erff1TvcpX-7" target="3olijA8-65Erff1TvcpX-18">
          <mxGeometry relative="1" as="geometry" />
        </mxCell>
        <mxCell id="3olijA8-65Erff1TvcpX-7" value="USER MANAGEMENT" style="text;html=1;align=center;verticalAlign=middle;resizable=0;points=[];autosize=1;strokeColor=none;fillColor=none;fontStyle=1;fontSize=14;" vertex="1" parent="1">
          <mxGeometry x="50" y="73.75" width="170" height="30" as="geometry" />
        </mxCell>
        <mxCell id="3olijA8-65Erff1TvcpX-15" style="edgeStyle=orthogonalEdgeStyle;rounded=0;orthogonalLoop=1;jettySize=auto;html=1;exitX=0.5;exitY=0;exitDx=0;exitDy=0;" edge="1" parent="1" source="3olijA8-65Erff1TvcpX-8">
          <mxGeometry relative="1" as="geometry">
            <mxPoint x="358" y="40" as="targetPoint" />
          </mxGeometry>
        </mxCell>
        <mxCell id="3olijA8-65Erff1TvcpX-16" value="" style="edgeStyle=orthogonalEdgeStyle;rounded=0;orthogonalLoop=1;jettySize=auto;html=1;shape=arrow;" edge="1" parent="1" source="3olijA8-65Erff1TvcpX-8" target="3olijA8-65Erff1TvcpX-11">
          <mxGeometry relative="1" as="geometry" />
        </mxCell>
        <mxCell id="3olijA8-65Erff1TvcpX-8" value="USER REGISTRATION&lt;div&gt;&lt;br&gt;&lt;/div&gt;&lt;div&gt;&lt;ul&gt;&lt;li&gt;GUESTS &amp;amp; HOSTS SIGN UP&lt;/li&gt;&lt;li&gt;JWT (JSON WEB TOKENS&amp;nbsp; &amp;nbsp;&lt;/li&gt;&lt;/ul&gt;&lt;/div&gt;" style="whiteSpace=wrap;html=1;sketch=1;curveFitting=1;jiggle=2;" vertex="1" parent="1">
          <mxGeometry x="255" y="40" width="285" height="100" as="geometry" />
        </mxCell>
        <mxCell id="3olijA8-65Erff1TvcpX-13" value="" style="edgeStyle=orthogonalEdgeStyle;rounded=0;orthogonalLoop=1;jettySize=auto;html=1;shape=arrow;" edge="1" parent="1" source="3olijA8-65Erff1TvcpX-11">
          <mxGeometry relative="1" as="geometry">
            <mxPoint x="900" y="89.45000000000005" as="targetPoint" />
          </mxGeometry>
        </mxCell>
        <mxCell id="3olijA8-65Erff1TvcpX-11" value="USER LOGIN&lt;div&gt;&lt;br&gt;&lt;/div&gt;&lt;div&gt;&lt;ul&gt;&lt;li&gt;LOGIN VIA EMAIL/PHONE&lt;/li&gt;&lt;li&gt;JWT (JSON WEB TOKENS&lt;/li&gt;&lt;li&gt;INCLUDE OAUTH&amp;nbsp; &amp;nbsp;&amp;nbsp;&lt;/li&gt;&lt;/ul&gt;&lt;/div&gt;" style="whiteSpace=wrap;html=1;sketch=1;curveFitting=1;jiggle=2;" vertex="1" parent="1">
          <mxGeometry x="580" y="40" width="280" height="100" as="geometry" />
        </mxCell>
        <mxCell id="3olijA8-65Erff1TvcpX-12" value="PROFILE MANAGEMENT&lt;div&gt;&lt;ul&gt;&lt;li&gt;UPDATE USER PROFILE( PROFILE PHOTOS, CONTACT INFO)&lt;/li&gt;&lt;/ul&gt;&lt;/div&gt;" style="whiteSpace=wrap;html=1;sketch=1;curveFitting=1;jiggle=2;" vertex="1" parent="1">
          <mxGeometry x="900" y="40" width="280" height="101.25" as="geometry" />
        </mxCell>
        <mxCell id="3olijA8-65Erff1TvcpX-27" value="" style="edgeStyle=orthogonalEdgeStyle;rounded=0;orthogonalLoop=1;jettySize=auto;html=1;shape=arrow;fontStyle=1;fontSize=14;" edge="1" parent="1" source="3olijA8-65Erff1TvcpX-18" target="3olijA8-65Erff1TvcpX-26">
          <mxGeometry relative="1" as="geometry" />
        </mxCell>
        <mxCell id="3olijA8-65Erff1TvcpX-61" value="" style="edgeStyle=orthogonalEdgeStyle;rounded=0;orthogonalLoop=1;jettySize=auto;html=1;shape=arrow;" edge="1" parent="1" source="3olijA8-65Erff1TvcpX-18" target="3olijA8-65Erff1TvcpX-20">
          <mxGeometry relative="1" as="geometry" />
        </mxCell>
        <mxCell id="3olijA8-65Erff1TvcpX-18" value="PROPERTY LISTINGS&lt;div style=&quot;font-size: 14px;&quot;&gt;&amp;nbsp;MANAGAMENT&lt;/div&gt;" style="text;html=1;align=center;verticalAlign=middle;resizable=0;points=[];autosize=1;strokeColor=none;fillColor=none;fontStyle=1;fontSize=14;" vertex="1" parent="1">
          <mxGeometry x="50" y="205" width="170" height="50" as="geometry" />
        </mxCell>
        <mxCell id="3olijA8-65Erff1TvcpX-23" value="" style="edgeStyle=orthogonalEdgeStyle;rounded=0;orthogonalLoop=1;jettySize=auto;html=1;shape=arrow;" edge="1" parent="1" source="3olijA8-65Erff1TvcpX-20" target="3olijA8-65Erff1TvcpX-22">
          <mxGeometry relative="1" as="geometry" />
        </mxCell>
        <mxCell id="3olijA8-65Erff1TvcpX-20" value="ADD LISTINGS&lt;div&gt;&lt;ul&gt;&lt;li&gt;CREATE PROPERTY LISTINGS (TITLE, DESCRIPTION, PRICE, LOCATION, AMENITIES, AVAILABILITY&lt;/li&gt;&lt;/ul&gt;&lt;/div&gt;" style="whiteSpace=wrap;html=1;sketch=1;curveFitting=1;jiggle=2;" vertex="1" parent="1">
          <mxGeometry x="255" y="167.5" width="280" height="122.5" as="geometry" />
        </mxCell>
        <mxCell id="3olijA8-65Erff1TvcpX-25" value="" style="edgeStyle=orthogonalEdgeStyle;rounded=0;orthogonalLoop=1;jettySize=auto;html=1;shape=arrow;" edge="1" parent="1" source="3olijA8-65Erff1TvcpX-22">
          <mxGeometry relative="1" as="geometry">
            <mxPoint x="900" y="228.75" as="targetPoint" />
          </mxGeometry>
        </mxCell>
        <mxCell id="3olijA8-65Erff1TvcpX-22" value="EDIT LISTINGS&lt;div&gt;&lt;ul&gt;&lt;li&gt;HOSTS CAN UPDATE PROPERTY LISTINGS&amp;nbsp; &amp;nbsp; &amp;nbsp;&lt;/li&gt;&lt;/ul&gt;&lt;/div&gt;" style="whiteSpace=wrap;html=1;sketch=1;curveFitting=1;jiggle=2;" vertex="1" parent="1">
          <mxGeometry x="580" y="167.5" width="280" height="122.5" as="geometry" />
        </mxCell>
        <mxCell id="3olijA8-65Erff1TvcpX-24" value="DELETE LISTINGS&lt;div&gt;&lt;ul&gt;&lt;li&gt;HOSTS CAN DELETE PROPERTY LISTINGS&lt;/li&gt;&lt;/ul&gt;&lt;/div&gt;" style="whiteSpace=wrap;html=1;sketch=1;curveFitting=1;jiggle=2;" vertex="1" parent="1">
          <mxGeometry x="900" y="168.75" width="280" height="122.5" as="geometry" />
        </mxCell>
        <mxCell id="3olijA8-65Erff1TvcpX-29" value="" style="edgeStyle=orthogonalEdgeStyle;rounded=0;orthogonalLoop=1;jettySize=auto;html=1;shape=arrow;" edge="1" parent="1" source="3olijA8-65Erff1TvcpX-26" target="3olijA8-65Erff1TvcpX-28">
          <mxGeometry relative="1" as="geometry" />
        </mxCell>
        <mxCell id="3olijA8-65Erff1TvcpX-33" value="" style="edgeStyle=orthogonalEdgeStyle;rounded=0;orthogonalLoop=1;jettySize=auto;html=1;shape=arrow;fontStyle=1;fontSize=14;" edge="1" parent="1" source="3olijA8-65Erff1TvcpX-26" target="3olijA8-65Erff1TvcpX-32">
          <mxGeometry relative="1" as="geometry" />
        </mxCell>
        <mxCell id="3olijA8-65Erff1TvcpX-26" value="SEARCH AND FILTERING" style="text;html=1;align=center;verticalAlign=middle;resizable=0;points=[];autosize=1;strokeColor=none;fillColor=none;fontStyle=1;fontSize=14;" vertex="1" parent="1">
          <mxGeometry x="40" y="360.63" width="190" height="30" as="geometry" />
        </mxCell>
        <mxCell id="3olijA8-65Erff1TvcpX-31" value="" style="edgeStyle=orthogonalEdgeStyle;rounded=0;orthogonalLoop=1;jettySize=auto;html=1;shape=arrow;" edge="1" parent="1" source="3olijA8-65Erff1TvcpX-28" target="3olijA8-65Erff1TvcpX-30">
          <mxGeometry relative="1" as="geometry" />
        </mxCell>
        <mxCell id="3olijA8-65Erff1TvcpX-28" value="IMPLEMENT SEARCH FUNCTIONALITY BY&lt;div&gt;&lt;ul&gt;&lt;li&gt;LOCATION&lt;/li&gt;&lt;li&gt;PRICE RANGE&lt;/li&gt;&lt;li&gt;NUMBER OF GUESTS&lt;/li&gt;&lt;li&gt;AMENITIES (WIFI,PET,POOL)&lt;/li&gt;&lt;/ul&gt;&lt;/div&gt;" style="whiteSpace=wrap;html=1;sketch=1;curveFitting=1;jiggle=2;" vertex="1" parent="1">
          <mxGeometry x="255" y="318.75" width="280" height="111.25" as="geometry" />
        </mxCell>
        <mxCell id="3olijA8-65Erff1TvcpX-30" value="INCLUDE OAGINATION FOR&amp;nbsp;&lt;div&gt;LARGE DATASETS&lt;/div&gt;" style="whiteSpace=wrap;html=1;sketch=1;curveFitting=1;jiggle=2;" vertex="1" parent="1">
          <mxGeometry x="580" y="318.75" width="280" height="111.25" as="geometry" />
        </mxCell>
        <mxCell id="3olijA8-65Erff1TvcpX-35" value="" style="edgeStyle=elbowEdgeStyle;rounded=0;orthogonalLoop=1;jettySize=auto;html=1;elbow=vertical;shape=arrow;" edge="1" parent="1" source="3olijA8-65Erff1TvcpX-32" target="3olijA8-65Erff1TvcpX-34">
          <mxGeometry relative="1" as="geometry" />
        </mxCell>
        <mxCell id="3olijA8-65Erff1TvcpX-44" value="" style="edgeStyle=orthogonalEdgeStyle;rounded=0;orthogonalLoop=1;jettySize=auto;html=1;shape=arrow;fontStyle=1;fontSize=14;" edge="1" parent="1" source="3olijA8-65Erff1TvcpX-32" target="3olijA8-65Erff1TvcpX-43">
          <mxGeometry relative="1" as="geometry" />
        </mxCell>
        <mxCell id="3olijA8-65Erff1TvcpX-32" value="BOOKING MANAGEMENT" style="text;html=1;align=center;verticalAlign=middle;resizable=0;points=[];autosize=1;strokeColor=none;fillColor=none;fontStyle=1;fontSize=14;" vertex="1" parent="1">
          <mxGeometry x="40" y="511.25" width="190" height="30" as="geometry" />
        </mxCell>
        <mxCell id="3olijA8-65Erff1TvcpX-37" value="" style="edgeStyle=orthogonalEdgeStyle;rounded=0;orthogonalLoop=1;jettySize=auto;html=1;shape=arrow;" edge="1" parent="1" source="3olijA8-65Erff1TvcpX-34" target="3olijA8-65Erff1TvcpX-36">
          <mxGeometry relative="1" as="geometry" />
        </mxCell>
        <mxCell id="3olijA8-65Erff1TvcpX-34" value="BOOKING CREATION&lt;div&gt;&lt;ul&gt;&lt;li&gt;GUEST PROPERTY BOOKINGS&lt;/li&gt;&lt;li&gt;PREVENT DOUBLE BOOKING USING DATE VALIDATION&lt;/li&gt;&lt;/ul&gt;&lt;/div&gt;" style="whiteSpace=wrap;html=1;sketch=1;curveFitting=1;jiggle=2;" vertex="1" parent="1">
          <mxGeometry x="255" y="480" width="280" height="100" as="geometry" />
        </mxCell>
        <mxCell id="3olijA8-65Erff1TvcpX-39" value="" style="edgeStyle=orthogonalEdgeStyle;rounded=0;orthogonalLoop=1;jettySize=auto;html=1;shape=arrow;" edge="1" parent="1" source="3olijA8-65Erff1TvcpX-36">
          <mxGeometry relative="1" as="geometry">
            <mxPoint x="900" y="530" as="targetPoint" />
          </mxGeometry>
        </mxCell>
        <mxCell id="3olijA8-65Erff1TvcpX-36" value="BOOKING CANCELLATION&lt;div&gt;&lt;ul&gt;&lt;li&gt;ALLOW GUESTS &amp;amp; HOSTS TO CANCEL BOOKINGS&lt;/li&gt;&lt;/ul&gt;&lt;/div&gt;" style="whiteSpace=wrap;html=1;sketch=1;curveFitting=1;jiggle=2;" vertex="1" parent="1">
          <mxGeometry x="580" y="480" width="280" height="100" as="geometry" />
        </mxCell>
        <mxCell id="3olijA8-65Erff1TvcpX-38" value="BOOKING STATUS&lt;div&gt;&lt;ul&gt;&lt;li&gt;TRACK BOOKING STATUS (PENDING, CONFIRMED, CANCELED, COMPLETED)&lt;/li&gt;&lt;/ul&gt;&lt;/div&gt;" style="whiteSpace=wrap;html=1;sketch=1;curveFitting=1;jiggle=2;" vertex="1" parent="1">
          <mxGeometry x="900" y="480" width="280" height="100" as="geometry" />
        </mxCell>
        <mxCell id="3olijA8-65Erff1TvcpX-46" value="" style="edgeStyle=orthogonalEdgeStyle;rounded=0;orthogonalLoop=1;jettySize=auto;html=1;shape=arrow;" edge="1" parent="1" source="3olijA8-65Erff1TvcpX-43" target="3olijA8-65Erff1TvcpX-45">
          <mxGeometry relative="1" as="geometry" />
        </mxCell>
        <mxCell id="3olijA8-65Erff1TvcpX-50" value="" style="edgeStyle=orthogonalEdgeStyle;rounded=0;orthogonalLoop=1;jettySize=auto;html=1;shape=arrow;fontStyle=1;fontSize=14;" edge="1" parent="1" source="3olijA8-65Erff1TvcpX-43" target="3olijA8-65Erff1TvcpX-49">
          <mxGeometry relative="1" as="geometry" />
        </mxCell>
        <mxCell id="3olijA8-65Erff1TvcpX-43" value="PAYMENT INTEGRATION" style="text;html=1;align=center;verticalAlign=middle;resizable=0;points=[];autosize=1;strokeColor=none;fillColor=none;fontStyle=1;fontSize=14;" vertex="1" parent="1">
          <mxGeometry x="40" y="676.25" width="190" height="30" as="geometry" />
        </mxCell>
        <mxCell id="3olijA8-65Erff1TvcpX-48" value="" style="edgeStyle=orthogonalEdgeStyle;rounded=0;orthogonalLoop=1;jettySize=auto;html=1;shape=arrow;" edge="1" parent="1" source="3olijA8-65Erff1TvcpX-45" target="3olijA8-65Erff1TvcpX-47">
          <mxGeometry relative="1" as="geometry" />
        </mxCell>
        <mxCell id="3olijA8-65Erff1TvcpX-45" value="IMPLEMENT PAYMENT GATEWAYS(PAYPAL, STRIPE)&lt;div&gt;&lt;ul&gt;&lt;li&gt;HANDLE UPFRONT PAYMENTS BY GUESTS&lt;/li&gt;&lt;li&gt;AUTOMATIC PAYUOTS TO HOSTS AFTER BOOKING IS COMPLETED&lt;/li&gt;&lt;/ul&gt;&lt;/div&gt;" style="whiteSpace=wrap;html=1;sketch=1;curveFitting=1;jiggle=2;" vertex="1" parent="1">
          <mxGeometry x="255" y="630" width="280" height="120" as="geometry" />
        </mxCell>
        <mxCell id="3olijA8-65Erff1TvcpX-47" value="INCLUDE SUPPORT FOR MULTIPLE CURRENCIES" style="whiteSpace=wrap;html=1;sketch=1;curveFitting=1;jiggle=2;" vertex="1" parent="1">
          <mxGeometry x="580" y="630" width="280" height="120" as="geometry" />
        </mxCell>
        <mxCell id="3olijA8-65Erff1TvcpX-52" value="" style="edgeStyle=orthogonalEdgeStyle;rounded=0;orthogonalLoop=1;jettySize=auto;html=1;shape=arrow;" edge="1" parent="1" source="3olijA8-65Erff1TvcpX-49" target="3olijA8-65Erff1TvcpX-51">
          <mxGeometry relative="1" as="geometry" />
        </mxCell>
        <mxCell id="3olijA8-65Erff1TvcpX-65" value="" style="edgeStyle=orthogonalEdgeStyle;rounded=0;orthogonalLoop=1;jettySize=auto;html=1;shape=arrow;fontStyle=1;fontSize=14;" edge="1" parent="1" source="3olijA8-65Erff1TvcpX-49" target="3olijA8-65Erff1TvcpX-64">
          <mxGeometry relative="1" as="geometry" />
        </mxCell>
        <mxCell id="3olijA8-65Erff1TvcpX-49" value="REVIEWS AND RATINGS" style="text;html=1;align=center;verticalAlign=middle;resizable=0;points=[];autosize=1;strokeColor=none;fillColor=none;fontStyle=1;fontSize=14;" vertex="1" parent="1">
          <mxGeometry x="40" y="858.13" width="190" height="30" as="geometry" />
        </mxCell>
        <mxCell id="3olijA8-65Erff1TvcpX-51" value="&lt;ul&gt;&lt;li&gt;GUESTS CAN LEAVE REVIEWS AND RATINGS&lt;/li&gt;&lt;li&gt;HOSTS CAN RESPOND TO REVIEWS&lt;/li&gt;&lt;li&gt;REVIEWS ARE LINKED TO SPECIFIC BOOKINGS&lt;/li&gt;&lt;/ul&gt;" style="whiteSpace=wrap;html=1;sketch=1;curveFitting=1;jiggle=2;" vertex="1" parent="1">
          <mxGeometry x="255" y="825" width="285" height="93.75" as="geometry" />
        </mxCell>
        <mxCell id="3olijA8-65Erff1TvcpX-67" value="" style="edgeStyle=orthogonalEdgeStyle;rounded=0;orthogonalLoop=1;jettySize=auto;html=1;shape=arrow;" edge="1" parent="1" source="3olijA8-65Erff1TvcpX-64" target="3olijA8-65Erff1TvcpX-66">
          <mxGeometry relative="1" as="geometry">
            <Array as="points">
              <mxPoint x="230" y="1035" />
              <mxPoint x="230" y="1034" />
            </Array>
          </mxGeometry>
        </mxCell>
        <mxCell id="3olijA8-65Erff1TvcpX-69" value="" style="edgeStyle=orthogonalEdgeStyle;rounded=0;orthogonalLoop=1;jettySize=auto;html=1;shape=arrow;fontStyle=1;fontSize=14;" edge="1" parent="1" source="3olijA8-65Erff1TvcpX-64" target="3olijA8-65Erff1TvcpX-68">
          <mxGeometry relative="1" as="geometry" />
        </mxCell>
        <mxCell id="3olijA8-65Erff1TvcpX-64" value="NOTIFICATION SYSTEM" style="text;html=1;align=center;verticalAlign=middle;resizable=0;points=[];autosize=1;strokeColor=none;fillColor=none;fontStyle=1;fontSize=14;" vertex="1" parent="1">
          <mxGeometry x="45" y="1018.75" width="180" height="30" as="geometry" />
        </mxCell>
        <mxCell id="3olijA8-65Erff1TvcpX-66" value="IMPLEMENT EMAIL AND IN-APP NOTIFICATIONS&lt;div&gt;&lt;ul&gt;&lt;li&gt;BOOKING CONFIRMATIONS&lt;/li&gt;&lt;li&gt;CANCELLATIONS&lt;/li&gt;&lt;li&gt;PAYMENT UPDATES&lt;/li&gt;&lt;/ul&gt;&lt;/div&gt;" style="whiteSpace=wrap;html=1;rounded=0;glass=0;sketch=1;curveFitting=1;jiggle=2;" vertex="1" parent="1">
          <mxGeometry x="255" y="978.75" width="280" height="110" as="geometry" />
        </mxCell>
        <mxCell id="3olijA8-65Erff1TvcpX-71" value="" style="edgeStyle=orthogonalEdgeStyle;rounded=0;orthogonalLoop=1;jettySize=auto;html=1;shape=arrow;" edge="1" parent="1" source="3olijA8-65Erff1TvcpX-68" target="3olijA8-65Erff1TvcpX-70">
          <mxGeometry relative="1" as="geometry" />
        </mxCell>
        <mxCell id="3olijA8-65Erff1TvcpX-68" value="ADMIN DASHBOARD" style="text;html=1;align=center;verticalAlign=middle;resizable=0;points=[];autosize=1;strokeColor=none;fillColor=none;fontStyle=1;fontSize=14;" vertex="1" parent="1">
          <mxGeometry x="55" y="1200" width="160" height="30" as="geometry" />
        </mxCell>
        <mxCell id="3olijA8-65Erff1TvcpX-70" value="ADMIN INTERFACE FOR MONITORING AND MANAGING&lt;div&gt;&lt;ul&gt;&lt;li&gt;USERS&lt;/li&gt;&lt;li&gt;LISTINGS&lt;/li&gt;&lt;li&gt;BOOKINGS&lt;/li&gt;&lt;li&gt;PAYMENTS&lt;/li&gt;&lt;/ul&gt;&lt;/div&gt;" style="whiteSpace=wrap;html=1;sketch=1;curveFitting=1;jiggle=2;" vertex="1" parent="1">
          <mxGeometry x="250" y="1155" width="285" height="120" as="geometry" />
        </mxCell>
      </root>
    </mxGraphModel>
  </diagram>
</mxfile>
